# xmcd
#
# Track frame offsets: 
#        150
#        14317
#        32252
#        50292
#        68730
#        85662
#        103482
#        120650
#        136182
#        151197
#        166597
#        189465
#        216307
#        248722
#        269962
#        296780
#        326712
#
# Disc length: 4605 seconds
#
# Revision: 0
# Processed by: cddbd v1.5.2PL0 Copyright (c) Steve Scherf et al.
# Submitted via: ExactAudioCopyFreeDBPlugin 1.0
#
DISCID=ef11fb11
DTITLE=Freddie King - The Texas Cannonball
DYEAR=1972
DGENRE=Blues
TTITLE0=Lowdown In Lodi
TTITLE1=Reconsider Baby
TTITLE2=Big Legged Woman
TTITLE3=Me And My Guitar
TTITLE4=I'd Rather Be Blind
TTITLE5=Can't Trust Your Neighbor
TTITLE6=You Was Wrong
TTITLE7=How Many More Years
TTITLE8=Ain't No Sunshine
TTITLE9=The Sky Is Crying
TTITLE10=Love Her With A Feeling
TTITLE11=Somebody's Got To Go
TTITLE12=Pulpwood
TTITLE13=That's All Right
TTITLE14=The Same Thing
TTITLE15=Tore Down
TTITLE16=Dust My Broom
EXTD=
EXTT0=
EXTT1=
EXTT2=
EXTT3=
EXTT4=
EXTT5=
EXTT6=
EXTT7=
EXTT8=
EXTT9=
EXTT10=
EXTT11=
EXTT12=
EXTT13=
EXTT14=
EXTT15=
EXTT16=
PLAYORDER=
